<svg width="32" height="32" viewBox="0 0 32 32" fill="none" xmlns="http://www.w3.org/2000/svg">
<path d="M13.9085 4.57336L5.92124 7.74749L0.133301 17.3926L1.74093 18.3576L6.56168 10.3216L11.3833 18.3576L12.9909 17.3926L7.93186 8.9608L14.6044 6.31468L13.9085 4.57336Z" fill="#FABE2C"/>
<path d="M31.8661 17.3926L26.0781 7.74749L18.0908 4.57336L17.395 6.31468L24.0675 8.9608L19.0085 17.3926L20.6161 18.3576L25.4377 10.3216L30.2585 18.3576L31.8661 17.3926Z" fill="#FF9100"/>
<path d="M15.0625 0H16.9375V2.875H15.0625V0Z" fill="#FABE2C"/>
<path d="M15.0625 6.625H16.9375V27.3125H15.0625V6.625Z" fill="#FABE2C"/>
<path d="M6.5625 24.4375C2.94069 24.4375 0 20.4669 0 17.875V16.9375H13.125V17.875C13.125 20.4669 10.1843 24.4375 6.5625 24.4375Z" fill="#FED843"/>
<path d="M25.437 24.4375C21.8152 24.4375 18.8745 20.4669 18.8745 17.875V16.9375H31.9995V17.875C31.9995 20.4669 29.0588 24.4375 25.437 24.4375Z" fill="#FABE2C"/>
<path d="M16 6.625H16.9375V27.3125H16V6.625Z" fill="#FF9100"/>
<path d="M16 0H16.9375V2.875H16V0Z" fill="#FF9100"/>
<path d="M15.9995 7.5625C14.4486 7.5625 13.187 6.30087 13.187 4.75C13.187 3.19913 14.4486 1.9375 15.9995 1.9375C17.5504 1.9375 18.812 3.19913 18.812 4.75C18.812 6.30087 17.5504 7.5625 15.9995 7.5625Z" fill="#FED843"/>
<path d="M18.8125 4.75C18.8125 3.19913 17.5509 1.9375 16 1.9375V7.5625C17.5509 7.5625 18.8125 6.30087 18.8125 4.75Z" fill="#FABE2C"/>
<path d="M23.1411 32H8.85889L11.6714 26.375H20.3286L23.1411 32Z" fill="#FED843"/>
<path d="M16 32H23.1411L20.3286 26.375H16V32Z" fill="#FABE2C"/>
</svg>
