<svg width="24" height="25" viewBox="0 0 24 25" fill="none" xmlns="http://www.w3.org/2000/svg">
<path d="M11.9998 22.6562C13.0998 22.6562 13.9998 21.7422 13.9998 20.625H9.99979C9.99979 21.7422 10.8998 22.6562 11.9998 22.6562ZM17.9998 16.5625V11.4844C17.9998 8.36641 16.3698 5.75625 13.4998 5.06562V4.375C13.4998 3.53203 12.8298 2.85156 11.9998 2.85156C11.1698 2.85156 10.4998 3.53203 10.4998 4.375V5.06562C7.63979 5.75625 5.99979 8.35625 5.99979 11.4844V16.5625L3.99979 18.5938V19.6094H19.9998V18.5938L17.9998 16.5625ZM15.9998 17.5781H7.99979V11.4844C7.99979 8.96562 9.50979 6.91406 11.9998 6.91406C14.4898 6.91406 15.9998 8.96562 15.9998 11.4844V17.5781ZM7.57979 4.45625L6.14979 3.00391C3.74978 4.8625 2.16979 7.72656 2.02979 10.9766H4.02979C4.17979 8.28516 5.53979 5.92891 7.57979 4.45625ZM19.9698 10.9766H21.9698C21.8198 7.72656 20.2398 4.8625 17.8498 3.00391L16.4298 4.45625C18.4498 5.92891 19.8198 8.28516 19.9698 10.9766Z" fill="#505050"/>
</svg>
