<svg width="24" height="25" viewBox="0 0 24 25" fill="none" xmlns="http://www.w3.org/2000/svg">
<g clip-path="url(#clip0)">
<path d="M10 16.0547V15.2523L10.27 14.968C11.41 15.9633 12.89 16.5625 14.5 16.5625C18.09 16.5625 21 13.607 21 9.96094C21 6.31484 18.09 3.35938 14.5 3.35938C10.91 3.35938 8 6.31484 8 9.96094C8 11.5961 8.59 13.0992 9.57 14.257L9.29 14.5312H8.5L3.51 19.6094L5 21.1227L10 16.0547ZM10 9.96094C10 7.43203 12.01 5.39062 14.5 5.39062C16.99 5.39062 19 7.43203 19 9.96094C19 12.4898 16.99 14.5312 14.5 14.5312C12.01 14.5312 10 12.4898 10 9.96094Z" fill="#505050"/>
</g>
<defs>
<clipPath id="clip0">
<rect width="24.375" height="24" fill="white" transform="translate(24 0.3125) rotate(90)"/>
</clipPath>
</defs>
</svg>
