<svg width="24" height="25" viewBox="0 0 24 25" fill="none" xmlns="http://www.w3.org/2000/svg">
<path d="M12 2.34375C6.48 2.34375 2 6.89375 2 12.5C2 18.1062 6.48 22.6562 12 22.6562C17.52 22.6562 22 18.1062 22 12.5C22 6.89375 17.52 2.34375 12 2.34375ZM7.07 18.8781C7.5 17.9641 10.12 17.0703 12 17.0703C13.88 17.0703 16.51 17.9641 16.93 18.8781C15.57 19.975 13.86 20.625 12 20.625C10.14 20.625 8.43 19.975 7.07 18.8781ZM18.36 17.4055C16.93 15.6383 13.46 15.0391 12 15.0391C10.54 15.0391 7.07 15.6383 5.64 17.4055C4.62 16.0445 4 14.3484 4 12.5C4 8.02109 7.59 4.375 12 4.375C16.41 4.375 20 8.02109 20 12.5C20 14.3484 19.38 16.0445 18.36 17.4055ZM12 6.40625C10.06 6.40625 8.5 7.99062 8.5 9.96094C8.5 11.9312 10.06 13.5156 12 13.5156C13.94 13.5156 15.5 11.9312 15.5 9.96094C15.5 7.99062 13.94 6.40625 12 6.40625ZM12 11.4844C11.17 11.4844 10.5 10.8039 10.5 9.96094C10.5 9.11797 11.17 8.4375 12 8.4375C12.83 8.4375 13.5 9.11797 13.5 9.96094C13.5 10.8039 12.83 11.4844 12 11.4844Z" fill="#505050"/>
</svg>
